<svg width="720" height="1040" xmlns="http://www.w3.org/2000/svg" xmlns:xlink="http://www.w3.org/1999/xlink" overflow="hidden"><defs><clipPath id="clip0"><rect x="0" y="0" width="720" height="1040"/></clipPath></defs><g clip-path="url(#clip0)"><rect x="0" y="0" width="720" height="1040" fill="#FFFFFF"/><rect x="176" y="911" width="399" height="74" fill="#D39FE5"/><rect x="188" y="735" width="387" height="176" fill="#89D1E7"/><rect x="212" y="488" width="363" height="247" fill="#94D094"/><rect x="212" y="144" width="363" height="344" fill="#F4C37C"/><rect x="188" y="7" width="387" height="138" fill="#EEA0A0"/><text font-family="Arial,Arial_MSFontService,sans-serif" font-weight="400" font-size="11" transform="translate(273.847 22)">S longifolia<tspan x="52.5" y="0">-</tspan>HAVANENSIS sp group</text><path d="M260.5 27.5001 260.5 18.5001 270.5 18.5001" stroke="#000000" stroke-width="0.833386" stroke-linecap="square" stroke-miterlimit="8" fill="none" fill-rule="evenodd"/><text font-family="Arial,Arial_MSFontService,sans-serif" font-weight="400" font-size="11" transform="translate(275.784 41)">S seleriana<tspan x="53.6667" y="0">-</tspan>SELERIANA sp group</text><path d="M260.5 28.5001 260.5 37.5001 272.5 37.5001" stroke="#000000" stroke-width="0.833386" stroke-linecap="square" stroke-miterlimit="8" fill="none" fill-rule="evenodd"/><path d="M253.5 41.5001 253.5 27.5001 260.5 27.5001" stroke="#000000" stroke-width="0.833386" stroke-linecap="square" stroke-miterlimit="8" fill="none" fill-rule="evenodd"/><text font-family="Arial,Arial_MSFontService,sans-serif" font-weight="400" font-size="11" transform="translate(280.432 60)">S guatemalensis<tspan x="79.3333" y="0">-</tspan>ULIGINOSA sp group</text><path d="M253.5 42.5001 253.5 56.5001 277.5 56.5001" stroke="#000000" stroke-width="0.833386" stroke-linecap="square" stroke-miterlimit="8" fill="none" fill-rule="evenodd"/><path d="M249.5 58.5001 249.5 42.5001 253.5 42.5001" stroke="#000000" stroke-width="0.833386" stroke-linecap="square" stroke-miterlimit="8" fill="none" fill-rule="evenodd"/><text font-family="Arial,Arial_MSFontService,sans-serif" font-weight="400" font-size="11" transform="translate(278.108 79)">S costaricana-COSTATICANA sp group</text><path d="M249.5 59.5001 249.5 75.5001 275.5 75.5001" stroke="#000000" stroke-width="0.833386" stroke-linecap="square" stroke-miterlimit="8" fill="none" fill-rule="evenodd"/><path d="M241.5 76.5001 241.5 59.5001 249.5 59.5001" stroke="#000000" stroke-width="0.833386" stroke-linecap="square" stroke-miterlimit="8" fill="none" fill-rule="evenodd"/><text font-family="Arial,Arial_MSFontService,sans-serif" font-weight="400" font-size="11" transform="translate(263.97 98)">S lutea-LUTEA sp group</text><path d="M241.5 77.5001 241.5 95.5001 260.5 95.5001" stroke="#000000" stroke-width="0.833386" stroke-linecap="square" stroke-miterlimit="8" fill="none" fill-rule="evenodd"/><path d="M216.5 95.5001 216.5 77.5001 241.5 77.5001" stroke="#000000" stroke-width="0.833386" stroke-linecap="square" stroke-miterlimit="8" fill="none" fill-rule="evenodd"/><text font-family="Arial,Arial_MSFontService,sans-serif" font-weight="400" font-size="11" transform="translate(284.112 117)">S havanensis-HAVANENSIS sp group</text><path d="M216.5 96.5001 216.5 114.5 281.5 114.5" stroke="#000000" stroke-width="0.833386" stroke-linecap="square" stroke-miterlimit="8" fill="none" fill-rule="evenodd"/><path d="M194.5 114.5 194.5 95.5001 216.5 95.5001" stroke="#000000" stroke-width="0.833386" stroke-linecap="square" stroke-miterlimit="8" fill="none" fill-rule="evenodd"/><text font-family="Arial,Arial_MSFontService,sans-serif" font-weight="400" font-size="11" transform="translate(234.917 137)">S splendens<tspan x="59.1667" y="0">-</tspan>SPECIOSA sp group</text><path d="M194.5 114.5 194.5 133.5 231.5 133.5" stroke="#000000" stroke-width="0.833386" stroke-linecap="square" stroke-miterlimit="8" fill="none" fill-rule="evenodd"/><path d="M180.5 309.5 180.5 114.5 194.5 114.5" stroke="#000000" stroke-width="0.833386" stroke-linecap="square" stroke-miterlimit="8" fill="none" fill-rule="evenodd"/><text font-family="Arial,Arial_MSFontService,sans-serif" font-weight="400" font-size="11" transform="translate(252.349 156)">S discolor<tspan x="47" y="0">-</tspan>DISCOLOR sp group</text><path d="M239.5 161.5 239.5 152.5 249.5 152.5" stroke="#000000" stroke-width="0.833386" stroke-linecap="square" stroke-miterlimit="8" fill="none" fill-rule="evenodd"/><text font-family="Arial,Arial_MSFontService,sans-serif" font-weight="400" font-size="11" transform="translate(295.733 175)">S insignis<tspan x="45.8333" y="0">-</tspan>Q</text><path d="M239.5 162.5 239.5 171.5 292.5 171.5" stroke="#000000" stroke-width="0.833386" stroke-linecap="square" stroke-miterlimit="8" fill="none" fill-rule="evenodd"/><text font-family="Arial,Arial_MSFontService,sans-serif" font-weight="400" font-size="11" transform="translate(255.06 194)">S indica var coccinea-VIOLACEA sp group</text><path d="M242.5 200.5 242.5 191.5 252.5 191.5" stroke="#000000" stroke-width="0.833386" stroke-linecap="square" stroke-miterlimit="8" fill="none" fill-rule="evenodd"/><text font-family="Arial,Arial_MSFontService,sans-serif" font-weight="400" font-size="11" transform="translate(262.614 213)">S javanica<tspan x="49.5" y="0">-</tspan>HUMILIS sp group</text><path d="M242.5 201.5 242.5 210.5 259.5 210.5" stroke="#000000" stroke-width="0.833386" stroke-linecap="square" stroke-miterlimit="8" fill="none" fill-rule="evenodd"/><text font-family="Arial,Arial_MSFontService,sans-serif" font-weight="400" font-size="11" transform="translate(248.862 233)">S barbata<tspan x="46.6667" y="0">-</tspan>GALERICULATA sp group</text><path d="M242.5 210.5 242.5 229.5 245.5 229.5" stroke="#000000" stroke-width="0.833386" stroke-linecap="square" stroke-miterlimit="8" fill="none" fill-rule="evenodd"/><path d="M242.5 191.5 242.5 209.5" stroke="#000000" stroke-width="0.833386" stroke-linecap="square" stroke-miterlimit="8" fill="none" fill-rule="evenodd"/><path d="M239.5 181.5 239.5 210.5 242.5 210.5" stroke="#000000" stroke-width="0.833386" stroke-linecap="square" stroke-miterlimit="8" fill="none" fill-rule="evenodd"/><path d="M239.5 152.5 239.5 181.5" stroke="#000000" stroke-width="0.833386" stroke-linecap="square" stroke-miterlimit="8" fill="none" fill-rule="evenodd"/><path d="M235.5 250.5 235.5 181.5 239.5 181.5" stroke="#000000" stroke-width="0.833386" stroke-linecap="square" stroke-miterlimit="8" fill="none" fill-rule="evenodd"/><text font-family="Arial,Arial_MSFontService,sans-serif" font-weight="400" font-size="11" transform="translate(260.483 252)">S siphocampyloides-ANGUSTIFOLIA sp group</text><path d="M254.5 257.5 254.5 248.5 257.5 248.5" stroke="#000000" stroke-width="0.833386" stroke-linecap="square" stroke-miterlimit="8" fill="none" fill-rule="evenodd"/><text font-family="Arial,Arial_MSFontService,sans-serif" font-weight="400" font-size="11" transform="translate(306.579 271)">S antirrhinoides-ANGUSTIFOLIA sp group</text><path d="M254.5 258.5 254.5 267.5 303.5 267.5" stroke="#000000" stroke-width="0.833386" stroke-linecap="square" stroke-miterlimit="8" fill="none" fill-rule="evenodd"/><path d="M251.5 276.5 251.5 258.5 254.5 258.5" stroke="#000000" stroke-width="0.833386" stroke-linecap="square" stroke-miterlimit="8" fill="none" fill-rule="evenodd"/><text font-family="Arial,Arial_MSFontService,sans-serif" font-weight="400" font-size="11" transform="translate(271.329 290)">S angustifolia-ANGUSTIFOLIA sp group</text><path d="M268.5 296.5 268.5 286.5 268.5 286.5" stroke="#000000" stroke-width="0.833386" stroke-linecap="square" stroke-miterlimit="8" fill="none" fill-rule="evenodd"/><text font-family="Arial,Arial_MSFontService,sans-serif" font-weight="400" font-size="11" transform="translate(302.318 309)">S angustifolia subsp micrantha-Q</text><path d="M268.5 296.5 268.5 306.5 299.5 306.5" stroke="#000000" stroke-width="0.833386" stroke-linecap="square" stroke-miterlimit="8" fill="none" fill-rule="evenodd"/><path d="M251.5 277.5 251.5 296.5 268.5 296.5" stroke="#000000" stroke-width="0.833386" stroke-linecap="square" stroke-miterlimit="8" fill="none" fill-rule="evenodd"/><path d="M242.5 305.5 242.5 277.5 251.5 277.5" stroke="#000000" stroke-width="0.833386" stroke-linecap="square" stroke-miterlimit="8" fill="none" fill-rule="evenodd"/><text font-family="Arial,Arial_MSFontService,sans-serif" font-weight="400" font-size="11" transform="translate(284.693 329)">S parvula<tspan x="45.3333" y="0">-</tspan>PARVULA sp group</text><path d="M253.5 334.5 253.5 325.5 281.5 325.5" stroke="#000000" stroke-width="0.833386" stroke-linecap="square" stroke-miterlimit="8" fill="none" fill-rule="evenodd"/><text font-family="Arial,Arial_MSFontService,sans-serif" font-weight="400" font-size="11" transform="translate(267.456 348)">S ovata-OVATA sp group</text><path d="M253.5 335.5 253.5 344.5 264.5 344.5" stroke="#000000" stroke-width="0.833386" stroke-linecap="square" stroke-miterlimit="8" fill="none" fill-rule="evenodd"/><path d="M242.5 306.5 242.5 334.5 253.5 334.5" stroke="#000000" stroke-width="0.833386" stroke-linecap="square" stroke-miterlimit="8" fill="none" fill-rule="evenodd"/><text font-family="Arial,Arial_MSFontService,sans-serif" font-weight="400" font-size="11" transform="translate(261.839 367)">S sapphirina<tspan x="59.6667" y="0">-</tspan>Q</text><path d="M242.5 320.5 242.5 363.5 258.5 363.5" stroke="#000000" stroke-width="0.833386" stroke-linecap="square" stroke-miterlimit="8" fill="none" fill-rule="evenodd"/><path d="M242.5 277.5 242.5 320.5" stroke="#000000" stroke-width="0.833386" stroke-linecap="square" stroke-miterlimit="8" fill="none" fill-rule="evenodd"/><path d="M235.5 251.5 235.5 320.5 242.5 320.5" stroke="#000000" stroke-width="0.833386" stroke-linecap="square" stroke-miterlimit="8" fill="none" fill-rule="evenodd"/><path d="M222.5 316.5 222.5 250.5 235.5 250.5" stroke="#000000" stroke-width="0.833386" stroke-linecap="square" stroke-miterlimit="8" fill="none" fill-rule="evenodd"/><text font-family="Arial,Arial_MSFontService,sans-serif" font-weight="400" font-size="11" transform="translate(303.093 386)">S racemosa<tspan x="57.1667" y="0">-</tspan>RACEMOSA sp group</text><path d="M222.5 317.5 222.5 382.5 300.5 382.5" stroke="#000000" stroke-width="0.833386" stroke-linecap="square" stroke-miterlimit="8" fill="none" fill-rule="evenodd"/><path d="M219.5 387.5 219.5 316.5 222.5 316.5" stroke="#000000" stroke-width="0.833386" stroke-linecap="square" stroke-miterlimit="8" fill="none" fill-rule="evenodd"/><text font-family="Arial,Arial_MSFontService,sans-serif" font-weight="400" font-size="11" transform="translate(232.399 405)">S strigillosa<tspan x="54.6667" y="0">-</tspan>STRIGILLOSA sp group</text><path d="M229.5 411.5 229.5 402.5 229.5 402.5" stroke="#000000" stroke-width="0.833386" stroke-linecap="square" stroke-miterlimit="8" fill="none" fill-rule="evenodd"/><text font-family="Arial,Arial_MSFontService,sans-serif" font-weight="400" font-size="11" transform="translate(232.399 424)">S scordiifolia<tspan x="60.6667" y="0">-</tspan>STRIGILLOSA sp group</text><path d="M229.5 412.5 229.5 421.5 229.5 421.5" stroke="#000000" stroke-width="0.833386" stroke-linecap="square" stroke-miterlimit="8" fill="none" fill-rule="evenodd"/><text font-family="Arial,Arial_MSFontService,sans-serif" font-weight="400" font-size="11" transform="translate(238.791 444)">S galericulata<tspan x="65" y="0">-</tspan>GALERICULATA sp group</text><path d="M229.5 421.5 229.5 440.5 235.5 440.5" stroke="#000000" stroke-width="0.833386" stroke-linecap="square" stroke-miterlimit="8" fill="none" fill-rule="evenodd"/><path d="M229.5 402.5 229.5 420.5" stroke="#000000" stroke-width="0.833386" stroke-linecap="square" stroke-miterlimit="8" fill="none" fill-rule="evenodd"/><path d="M226.5 440.5 226.5 421.5 229.5 421.5" stroke="#000000" stroke-width="0.833386" stroke-linecap="square" stroke-miterlimit="8" fill="none" fill-rule="evenodd"/><text font-family="Arial,Arial_MSFontService,sans-serif" font-weight="400" font-size="11" transform="translate(251.768 463)">S dependens-GALERICULATA sp group</text><path d="M226.5 440.5 226.5 459.5 248.5 459.5" stroke="#000000" stroke-width="0.833386" stroke-linecap="square" stroke-miterlimit="8" fill="none" fill-rule="evenodd"/><path d="M222.5 459.5 222.5 440.5 226.5 440.5" stroke="#000000" stroke-width="0.833386" stroke-linecap="square" stroke-miterlimit="8" fill="none" fill-rule="evenodd"/><text font-family="Arial,Arial_MSFontService,sans-serif" font-weight="400" font-size="11" transform="translate(253.704 482)">S lateriflora<tspan x="54.1667" y="0">-</tspan>LATERIFLORA sp group</text><path d="M222.5 460.5 222.5 478.5 250.5 478.5" stroke="#000000" stroke-width="0.833386" stroke-linecap="square" stroke-miterlimit="8" fill="none" fill-rule="evenodd"/><path d="M219.5 388.5 219.5 459.5 222.5 459.5" stroke="#000000" stroke-width="0.833386" stroke-linecap="square" stroke-miterlimit="8" fill="none" fill-rule="evenodd"/><path d="M206.5 505.5 206.5 388.5 219.5 388.5" stroke="#000000" stroke-width="0.833386" stroke-linecap="square" stroke-miterlimit="8" fill="none" fill-rule="evenodd"/><text font-family="Arial,Arial_MSFontService,sans-serif" font-weight="400" font-size="11" transform="translate(272.492 501)">S<tspan x="10.1667" y="0">resinosa</tspan>-RESINOSA <tspan x="112.5" y="0">sp</tspan><tspan x="126.833" y="0">group</tspan></text><path d="M269.5 507.5 269.5 498.5 269.5 498.5" stroke="#000000" stroke-width="0.833386" stroke-linecap="square" stroke-miterlimit="8" fill="none" fill-rule="evenodd"/><text font-family="Arial,Arial_MSFontService,sans-serif" font-weight="400" font-size="11" transform="translate(279.077 520)">S drummondii-RESINOSA sp group</text><path d="M269.5 507.5 269.5 517.5 275.5 517.5" stroke="#000000" stroke-width="0.833386" stroke-linecap="square" stroke-miterlimit="8" fill="none" fill-rule="evenodd"/><path d="M266.5 521.5 266.5 507.5 269.5 507.5" stroke="#000000" stroke-width="0.833386" stroke-linecap="square" stroke-miterlimit="8" fill="none" fill-rule="evenodd"/><text font-family="Arial,Arial_MSFontService,sans-serif" font-weight="400" font-size="11" transform="translate(269.199 540)">S potosina<tspan x="50.8333" y="0">-</tspan>Q</text><path d="M266.5 522.5 266.5 536.5 266.5 536.5" stroke="#000000" stroke-width="0.833386" stroke-linecap="square" stroke-miterlimit="8" fill="none" fill-rule="evenodd"/><path d="M263.5 538.5 263.5 521.5 266.5 521.5" stroke="#000000" stroke-width="0.833386" stroke-linecap="square" stroke-miterlimit="8" fill="none" fill-rule="evenodd"/><text font-family="Arial,Arial_MSFontService,sans-serif" font-weight="400" font-size="11" transform="translate(269.199 559)">S wrightii<tspan x="43.3333" y="0">-</tspan>Q</text><path d="M263.5 539.5 263.5 555.5 266.5 555.5" stroke="#000000" stroke-width="0.833386" stroke-linecap="square" stroke-miterlimit="8" fill="none" fill-rule="evenodd"/><path d="M256.5 556.5 256.5 538.5 263.5 538.5" stroke="#000000" stroke-width="0.833386" stroke-linecap="square" stroke-miterlimit="8" fill="none" fill-rule="evenodd"/><text font-family="Arial,Arial_MSFontService,sans-serif" font-weight="400" font-size="11" transform="translate(273.46 578)">S hispidula-Q</text><path d="M256.5 557.5 256.5 574.5 270.5 574.5" stroke="#000000" stroke-width="0.833386" stroke-linecap="square" stroke-miterlimit="8" fill="none" fill-rule="evenodd"/><path d="M244.5 574.5 244.5 556.5 256.5 556.5" stroke="#000000" stroke-width="0.833386" stroke-linecap="square" stroke-miterlimit="8" fill="none" fill-rule="evenodd"/><text font-family="Arial,Arial_MSFontService,sans-serif" font-weight="400" font-size="11" transform="translate(257.965 597)">S suffrutescens-Q</text><path d="M244.5 575.5 244.5 593.5 254.5 593.5" stroke="#000000" stroke-width="0.833386" stroke-linecap="square" stroke-miterlimit="8" fill="none" fill-rule="evenodd"/><path d="M217.5 622.5 217.5 575.5 244.5 575.5" stroke="#000000" stroke-width="0.833386" stroke-linecap="square" stroke-miterlimit="8" fill="none" fill-rule="evenodd"/><text font-family="Arial,Arial_MSFontService,sans-serif" font-weight="400" font-size="11" transform="translate(246.538 616)">S multiglandulosa<tspan x="84.6667" y="0">-</tspan>Q</text><path d="M239.5 622.5 239.5 613.5 243.5 613.5" stroke="#000000" stroke-width="0.833386" stroke-linecap="square" stroke-miterlimit="8" fill="none" fill-rule="evenodd"/><text font-family="Arial,Arial_MSFontService,sans-serif" font-weight="400" font-size="11" transform="translate(243.052 635)">S arenicola<tspan x="53.6667" y="0">-</tspan>Q</text><path d="M239.5 623.5 239.5 632.5 239.5 632.5" stroke="#000000" stroke-width="0.833386" stroke-linecap="square" stroke-miterlimit="8" fill="none" fill-rule="evenodd"/><text font-family="Arial,Arial_MSFontService,sans-serif" font-weight="400" font-size="11" transform="translate(249.443 655)">S glabriuscula-Q</text><path d="M239.5 632.5 239.5 651.5 246.5 651.5" stroke="#000000" stroke-width="0.833386" stroke-linecap="square" stroke-miterlimit="8" fill="none" fill-rule="evenodd"/><text font-family="Arial,Arial_MSFontService,sans-serif" font-weight="400" font-size="11" transform="translate(262.614 674)">S elliptica<tspan x="45.8333" y="0">-</tspan>Q</text><path d="M243.5 679.5 243.5 670.5 259.5 670.5" stroke="#000000" stroke-width="0.833386" stroke-linecap="square" stroke-miterlimit="8" fill="none" fill-rule="evenodd"/><text font-family="Arial,Arial_MSFontService,sans-serif" font-weight="400" font-size="11" transform="translate(256.029 693)">S integrifolia<tspan x="59" y="0">-</tspan>INCANA sp group</text><path d="M243.5 680.5 243.5 689.5 253.5 689.5" stroke="#000000" stroke-width="0.833386" stroke-linecap="square" stroke-miterlimit="8" fill="none" fill-rule="evenodd"/><path d="M239.5 694.5 239.5 680.5 243.5 680.5" stroke="#000000" stroke-width="0.833386" stroke-linecap="square" stroke-miterlimit="8" fill="none" fill-rule="evenodd"/><text font-family="Arial,Arial_MSFontService,sans-serif" font-weight="400" font-size="11" transform="translate(246.345 712)">S serrata-Q</text><path d="M239.5 695.5 239.5 709.5 243.5 709.5" stroke="#000000" stroke-width="0.833386" stroke-linecap="square" stroke-miterlimit="8" fill="none" fill-rule="evenodd"/><text font-family="Arial,Arial_MSFontService,sans-serif" font-weight="400" font-size="11" transform="translate(249.831 731)">S incana<tspan x="41.8333" y="0">-</tspan>INCANA sp group</text><path d="M239.5 671.5 239.5 728.5 246.5 728.5" stroke="#000000" stroke-width="0.833386" stroke-linecap="square" stroke-miterlimit="8" fill="none" fill-rule="evenodd"/><path d="M239.5 613.5 239.5 670.5" stroke="#000000" stroke-width="0.833386" stroke-linecap="square" stroke-miterlimit="8" fill="none" fill-rule="evenodd"/><path d="M217.5 623.5 217.5 670.5 239.5 670.5" stroke="#000000" stroke-width="0.833386" stroke-linecap="square" stroke-miterlimit="8" fill="none" fill-rule="evenodd"/><path d="M206.5 505.5 206.5 622.5 217.5 622.5" stroke="#000000" stroke-width="0.833386" stroke-linecap="square" stroke-miterlimit="8" fill="none" fill-rule="evenodd"/><path d="M180.5 310.5 180.5 505.5 206.5 505.5" stroke="#000000" stroke-width="0.833386" stroke-linecap="square" stroke-miterlimit="8" fill="none" fill-rule="evenodd"/><path d="M176.5 584.5 176.5 309.5 180.5 309.5" stroke="#000000" stroke-width="0.833386" stroke-linecap="square" stroke-miterlimit="8" fill="none" fill-rule="evenodd"/><text font-family="Arial,Arial_MSFontService,sans-serif" font-weight="400" font-size="11" transform="translate(294.184 751)">S pinnatifida<tspan x="59.1667" y="0">-</tspan>ORIENTALIS sp group</text><path d="M272.5 756.5 272.5 747.5 291.5 747.5" stroke="#000000" stroke-width="0.833386" stroke-linecap="square" stroke-miterlimit="8" fill="none" fill-rule="evenodd"/><text font-family="Arial,Arial_MSFontService,sans-serif" font-weight="400" font-size="11" transform="translate(285.856 770)">S orientalis<tspan x="53" y="0">-</tspan>ORIENTALIS sp group</text><path d="M272.5 757.5 272.5 766.5 282.5 766.5" stroke="#000000" stroke-width="0.833386" stroke-linecap="square" stroke-miterlimit="8" fill="none" fill-rule="evenodd"/><path d="M268.5 775.5 268.5 756.5 272.5 756.5" stroke="#000000" stroke-width="0.833386" stroke-linecap="square" stroke-miterlimit="8" fill="none" fill-rule="evenodd"/><text font-family="Arial,Arial_MSFontService,sans-serif" font-weight="400" font-size="11" transform="translate(295.346 789)">S multicaulis<tspan x="60" y="0">-</tspan>ORIENTALIS sp group</text><path d="M278.5 794.5 278.5 785.5 292.5 785.5" stroke="#000000" stroke-width="0.833386" stroke-linecap="square" stroke-miterlimit="8" fill="none" fill-rule="evenodd"/><text font-family="Arial,Arial_MSFontService,sans-serif" font-weight="400" font-size="11" transform="translate(311.809 808)">S heydei<tspan x="41.8333" y="0">-</tspan>Subsect CYSTASPIS-Sect LUPULINARIA</text><path d="M278.5 795.5 278.5 804.5 308.5 804.5" stroke="#000000" stroke-width="0.833386" stroke-linecap="square" stroke-miterlimit="8" fill="none" fill-rule="evenodd"/><path d="M268.5 776.5 268.5 795.5 278.5 795.5" stroke="#000000" stroke-width="0.833386" stroke-linecap="square" stroke-miterlimit="8" fill="none" fill-rule="evenodd"/><path d="M265.5 799.5 265.5 776.5 268.5 776.5" stroke="#000000" stroke-width="0.833386" stroke-linecap="square" stroke-miterlimit="8" fill="none" fill-rule="evenodd"/><text font-family="Arial,Arial_MSFontService,sans-serif" font-weight="400" font-size="11" transform="translate(284.693 827)">S leptosiphon<tspan x="65.1667" y="0">-</tspan>Sect APELTANTHUS</text><path d="M265.5 800.5 265.5 824.5 281.5 824.5" stroke="#000000" stroke-width="0.833386" stroke-linecap="square" stroke-miterlimit="8" fill="none" fill-rule="evenodd"/><text font-family="Arial,Arial_MSFontService,sans-serif" font-weight="400" font-size="11" transform="translate(281.595 847)">S prostrata-Q</text><path d="M278.5 852.5 278.5 843.5 278.5 843.5" stroke="#000000" stroke-width="0.833386" stroke-linecap="square" stroke-miterlimit="8" fill="none" fill-rule="evenodd"/><text font-family="Arial,Arial_MSFontService,sans-serif" font-weight="400" font-size="11" transform="translate(285.274 866)">S alpina<tspan x="38.8333" y="0">-</tspan>ORIENTALIS sp group</text><path d="M278.5 853.5 278.5 862.5 282.5 862.5" stroke="#000000" stroke-width="0.833386" stroke-linecap="square" stroke-miterlimit="8" fill="none" fill-rule="evenodd"/><text font-family="Arial,Arial_MSFontService,sans-serif" font-weight="400" font-size="11" transform="translate(304.836 885)">S przewalskii<tspan x="62.3333" y="0">-</tspan>Q</text><path d="M278.5 862.5 278.5 881.5 301.5 881.5" stroke="#000000" stroke-width="0.833386" stroke-linecap="square" stroke-miterlimit="8" fill="none" fill-rule="evenodd"/><path d="M278.5 843.5 278.5 862.5" stroke="#000000" stroke-width="0.833386" stroke-linecap="square" stroke-miterlimit="8" fill="none" fill-rule="evenodd"/><path d="M265.5 819.5 265.5 862.5 278.5 862.5" stroke="#000000" stroke-width="0.833386" stroke-linecap="square" stroke-miterlimit="8" fill="none" fill-rule="evenodd"/><path d="M265.5 776.5 265.5 818.5" stroke="#000000" stroke-width="0.833386" stroke-linecap="square" stroke-miterlimit="8" fill="none" fill-rule="evenodd"/><path d="M205.5 859.5 205.5 819.5 265.5 819.5" stroke="#000000" stroke-width="0.833386" stroke-linecap="square" stroke-miterlimit="8" fill="none" fill-rule="evenodd"/><text font-family="Arial,Arial_MSFontService,sans-serif" font-weight="400" font-size="11" transform="translate(265.519 904)">S baicalensis<tspan x="63.1667" y="0">-</tspan>STRIGILLOSA sp group</text><path d="M205.5 860.5 205.5 900.5 262.5 900.5" stroke="#000000" stroke-width="0.833386" stroke-linecap="square" stroke-miterlimit="8" fill="none" fill-rule="evenodd"/><path d="M176.5 585.5 176.5 860.5 205.5 860.5" stroke="#000000" stroke-width="0.833386" stroke-linecap="square" stroke-miterlimit="8" fill="none" fill-rule="evenodd"/><path d="M155.5 766.5 155.5 584.5 176.5 584.5" stroke="#000000" stroke-width="0.833386" stroke-linecap="square" stroke-miterlimit="8" fill="none" fill-rule="evenodd"/><text font-family="Arial,Arial_MSFontService,sans-serif" font-weight="400" font-size="11" transform="translate(301.544 923)">S tournefortii<tspan x="60.8333" y="0">-</tspan>ALBIDA sp group</text><path d="M283.5 929.5 283.5 920.5 298.5 920.5" stroke="#000000" stroke-width="0.833386" stroke-linecap="square" stroke-miterlimit="8" fill="none" fill-rule="evenodd"/><text font-family="Arial,Arial_MSFontService,sans-serif" font-weight="400" font-size="11" transform="translate(303.868 942)">S altissima<tspan x="51.6667" y="0">-</tspan>ALBIDA sp group</text><path d="M283.5 930.5 283.5 939.5 300.5 939.5" stroke="#000000" stroke-width="0.833386" stroke-linecap="square" stroke-miterlimit="8" fill="none" fill-rule="evenodd"/><path d="M191.5 948.5 191.5 929.5 283.5 929.5" stroke="#000000" stroke-width="0.833386" stroke-linecap="square" stroke-miterlimit="8" fill="none" fill-rule="evenodd"/><text font-family="Arial,Arial_MSFontService,sans-serif" font-weight="400" font-size="11" transform="translate(227.557 962)">S oblonga<tspan x="48.5" y="0">-</tspan>Q</text><path d="M203.5 967.5 203.5 958.5 224.5 958.5" stroke="#000000" stroke-width="0.833386" stroke-linecap="square" stroke-miterlimit="8" fill="none" fill-rule="evenodd"/><text font-family="Arial,Arial_MSFontService,sans-serif" font-weight="400" font-size="11" transform="translate(296.895 981)">S purpurascens<tspan x="75.1667" y="0">-</tspan>ULIGINOSA sp group</text><path d="M203.5 968.5 203.5 977.5 294.5 977.5" stroke="#000000" stroke-width="0.833386" stroke-linecap="square" stroke-miterlimit="8" fill="none" fill-rule="evenodd"/><path d="M191.5 949.5 191.5 968.5 203.5 968.5" stroke="#000000" stroke-width="0.833386" stroke-linecap="square" stroke-miterlimit="8" fill="none" fill-rule="evenodd"/><path d="M155.5 767.5 155.5 948.5 191.5 948.5" stroke="#000000" stroke-width="0.833386" stroke-linecap="square" stroke-miterlimit="8" fill="none" fill-rule="evenodd"/><path d="M79.5001 881.5 79.5001 766.5 155.5 766.5" stroke="#000000" stroke-width="0.833386" stroke-linecap="square" stroke-miterlimit="8" fill="none" fill-rule="evenodd"/><text font-family="Arial,Arial_MSFontService,sans-serif" font-weight="400" font-size="11" transform="translate(311.809 1000)">Holmskioldia sanguinea<tspan x="113.167" y="0">-</tspan>Outgroup</text><path d="M79.5001 882.5 79.5001 996.5 308.5 996.5" stroke="#000000" stroke-width="0.833386" stroke-linecap="square" stroke-miterlimit="8" fill="none" fill-rule="evenodd"/><text font-family="Tahoma,Tahoma_MSFontService,sans-serif" font-weight="400" font-size="9" transform="translate(217.585 419)">81<tspan x="-3.2926" y="19">60</tspan><tspan x="24.9849" y="-75">83</tspan><tspan x="38.3489" y="-115">63</tspan><tspan x="23.6291" y="-163">84</tspan><tspan x="21.3049" y="-144">55</tspan><tspan x="13.364" y="-90">48</tspan><tspan x="12.3956" y="-200">38</tspan><tspan x="8.71559" y="-240">57</tspan><tspan x="5.4231" y="-171">82</tspan><tspan x="-6.9725" y="-105">45</tspan><tspan x="13.945" y="260">76</tspan><tspan x="10.6525" y="249">99</tspan><tspan x="39.8983" y="86">46</tspan><tspan x="36.6057" y="100">53</tspan><tspan x="33.3132" y="117">87</tspan><tspan x="26.728" y="135">91</tspan><tspan x="14.5261" y="154">99</tspan><tspan x="-11.4272" y="213">93</tspan><tspan x="30.4079" y="-394">70</tspan><tspan x="23.6291" y="-380">65</tspan><tspan x="19.1744" y="-363">37</tspan><tspan x="11.2335" y="-345">75</tspan><tspan x="-13.9451" y="-326">69</tspan><tspan x="-36.0247" y="-308">69</tspan><tspan x="48.614" y="452">93</tspan><tspan x="48.4203" y="386">97</tspan><tspan x="42.6099" y="334">78</tspan><tspan x="38.9299" y="353">52</tspan><tspan x="30.7953" y="399">100</tspan><tspan x="-24.5975" y="449">97</tspan><tspan x="-27.1154" y="559">81</tspan><tspan x="49.1949" y="508">100</tspan><tspan x="-38.9299" y="540">82</tspan><tspan x="-54.8118" y="161">68</tspan><tspan x="-49.9698" y="-112">60</tspan><tspan x="-24.2102" y="97">98</tspan><tspan x="-10.8462" y="-33">85</tspan><tspan x="-6.1978" y="49">41</tspan></text><path d="M126.5 1023.5 142.5 1023.5" stroke="#000000" stroke-width="0.833386" stroke-linecap="square" stroke-linejoin="round" stroke-miterlimit="10" fill="none" fill-rule="evenodd"/><path d="M126.5 1020.5 126.5 1026.5" stroke="#000000" stroke-width="0.833386" stroke-linecap="square" stroke-linejoin="round" stroke-miterlimit="10" fill="none" fill-rule="evenodd"/><path d="M142.5 1020.5 142.5 1026.5" stroke="#000000" stroke-width="0.833386" stroke-linecap="square" stroke-linejoin="round" stroke-miterlimit="10" fill="none" fill-rule="evenodd"/><text font-family="Microsoft Sans Serif,Microsoft Sans Serif_MSFontService,sans-serif" font-weight="400" font-size="9" transform="translate(121.132 1035)">0.002<tspan font-family="Arial,Arial_MSFontService,sans-serif" font-size="19" x="475.593" y="-952">Clade 1</tspan><tspan font-family="Arial,Arial_MSFontService,sans-serif" font-size="19" x="475.593" y="-713">Clade 2</tspan><tspan font-family="Arial,Arial_MSFontService,sans-serif" font-size="19" x="475.593" y="-416">Clade 3</tspan><tspan font-family="Arial,Arial_MSFontService,sans-serif" font-size="19" x="475.593" y="-205">Clade 4</tspan><tspan font-family="Arial,Arial_MSFontService,sans-serif" font-size="19" x="475.593" y="-80">Clade 5</tspan></text></g></svg>